<svg xmlns="http://www.w3.org/2000/svg" xmlns:xlink="http://www.w3.org/1999/xlink" width="1119.618" height="1027.42" viewBox="0 0 1119.618 1027.42">
  <defs>
    <linearGradient id="linear-gradient" x1="0.5" y1="1.012" x2="0.5" y2="0.028" gradientUnits="objectBoundingBox">
      <stop offset="0" stop-color="gray" stop-opacity="0.251"/>
      <stop offset="0.54" stop-color="gray" stop-opacity="0.122"/>
      <stop offset="1" stop-color="gray" stop-opacity="0.102"/>
    </linearGradient>
    <linearGradient id="linear-gradient-2" y1="1" y2="0" xlink:href="#linear-gradient"/>
    <linearGradient id="linear-gradient-4" x1="0.499" y1="1.015" x2="0.499" y2="0.014" xlink:href="#linear-gradient"/>
    <linearGradient id="linear-gradient-5" y1="1.001" y2="0.038" xlink:href="#linear-gradient"/>
    <linearGradient id="linear-gradient-7" x1="0" y1="0.5" x2="1.001" y2="0.5" xlink:href="#linear-gradient"/>
    <linearGradient id="linear-gradient-9" x1="0.499" y1="1" x2="0.499" y2="0.001" xlink:href="#linear-gradient"/>
    <linearGradient id="linear-gradient-10" x1="0.499" y1="0.997" x2="0.499" y2="0.012" xlink:href="#linear-gradient"/>
    <linearGradient id="linear-gradient-11" x1="0.499" y1="0.997" x2="0.499" y2="0.013" gradientUnits="objectBoundingBox">
      <stop offset="0" stop-opacity="0.09"/>
      <stop offset="0.55" stop-opacity="0.071"/>
      <stop offset="1" stop-opacity="0.02"/>
    </linearGradient>
    <linearGradient id="linear-gradient-13" x1="0" y1="0.5" x2="1" y2="0.5" xlink:href="#linear-gradient"/>
  </defs>
  <g id="Group_12" data-name="Group 12" transform="translate(-3303.5 3034)">
    <g id="Group_11" data-name="Group 11">
      <g id="sync" transform="translate(3014 -3022)">
        <g id="Group_8" data-name="Group 8">
          <g id="Group_9" data-name="Group 9" transform="translate(-107 81)">
            <g id="undraw_real-time_sync_o57k" transform="translate(377 -61)">
              <rect id="Rectangle_1" data-name="Rectangle 1" width="149.32" height="271.94" rx="10" transform="translate(19.77 195)" fill="url(#linear-gradient)"/>
              <rect id="Rectangle_2" data-name="Rectangle 2" width="142.44" height="261.15" rx="10" transform="translate(23.21 199.47)" fill="#fff"/>
              <rect id="Rectangle_3" data-name="Rectangle 3" width="110.28" height="212.52" transform="translate(39.695 217.596) rotate(-0.08)" fill="#e6e6e6"/>
              <ellipse id="Ellipse_4" data-name="Ellipse 4" cx="8.79" cy="9.01" rx="8.79" ry="9.01" transform="translate(86.342 436.351) rotate(-0.08)" fill="#dbdbdb"/>
              <ellipse id="Ellipse_5" data-name="Ellipse 5" cx="1.76" cy="1.8" rx="1.76" ry="1.8" transform="translate(76.359 205.825) rotate(-0.08)" fill="#dbdbdb"/>
              <rect id="Rectangle_4" data-name="Rectangle 4" width="27.26" height="2.7" rx="1" transform="translate(86.03 206.261) rotate(-0.08)" fill="#dbdbdb"/>
              <rect id="Rectangle_5" data-name="Rectangle 5" width="62.44" height="65.56" transform="translate(63.76 340.76)" fill="url(#linear-gradient-2)"/>
              <path id="Rectangle_6" data-name="Rectangle 6" d="M0,0H57.01V59.86H0Z" transform="translate(66.48 343.61)" fill="#24afd8"/>
              <g id="Group_1" data-name="Group 1" transform="translate(-64 -3)" opacity="0.5">
                <path id="Path_33" data-name="Path 33" d="M305.06,442.74v-1.13h3v-5.79a9.27,9.27,0,1,0-15.75-.43v6.22h3.31v1.33a19.22,19.22,0,0,0-14.11,18.52v16.86H320V461.46a19.21,19.21,0,0,0-14.94-18.72Z" transform="translate(-141.76 -69)" fill="url(#linear-gradient-2)"/>
              </g>
              <rect id="Rectangle_7" data-name="Rectangle 7" width="14.25" height="11.4" transform="translate(87.38 359)" fill="#f55f44"/>
              <path id="Path_34" data-name="Path 34" d="M154.46,374h9a12.86,12.86,0,0,1,12.86,12.86v19.78H141.6v-19.8A12.86,12.86,0,0,1,154.46,374Z" transform="translate(-64 -3)" fill="#fdd835"/>
              <rect id="Rectangle_8" data-name="Rectangle 8" width="8.51" height="10.64" rx="3.15" transform="translate(90.37 365.3)" fill="#fda57d"/>
              <path id="Path_35" data-name="Path 35" d="M157,378.62l1.59,2.32,1.67-2.32Z" transform="translate(-64 -3)" fill="#fda57d"/>
              <path id="Path_36" data-name="Path 36" d="M289.9,456s-1.69,16.82-.6,17.91" transform="translate(-205.76 -72)" opacity="0.1"/>
              <path id="Path_37" data-name="Path 37" d="M310.8,456s1.69,16.82.6,17.91" transform="translate(-141.76 -69)" opacity="0.1"/>
              <path id="Path_38" data-name="Path 38" d="M300.39,442.47a7.06,7.06,0,0,0,4.2-1.38,4.26,4.26,0,0,0-4.2-3.59h0a4.26,4.26,0,0,0-4.2,3.59A7.06,7.06,0,0,0,300.39,442.47Z" transform="translate(-205.76 -72)" opacity="0.05"/>
              <circle id="Ellipse_6" data-name="Ellipse 6" cx="8.39" cy="8.39" r="8.39" transform="translate(86.24 352.16)" fill="#f55f44"/>
              <circle id="Ellipse_7" data-name="Ellipse 7" cx="7.09" cy="7.09" r="7.09" transform="translate(87.54 356.08)" fill="#fda57d"/>
              <ellipse id="Ellipse_8" data-name="Ellipse 8" cx="0.5" cy="0.9" rx="0.5" ry="0.9" transform="translate(87.02 361.81)" fill="#fda57d"/>
              <ellipse id="Ellipse_9" data-name="Ellipse 9" cx="0.5" cy="0.9" rx="0.5" ry="0.9" transform="translate(165.25 364.81)" fill="#fda57d"/>
              <rect id="Rectangle_9" data-name="Rectangle 9" width="96.24" height="4.18" transform="translate(46.86 231.26)" fill="#fff"/>
              <rect id="Rectangle_10" data-name="Rectangle 10" width="96.24" height="4.18" transform="translate(46.86 239.62)" fill="#fff"/>
              <rect id="Rectangle_11" data-name="Rectangle 11" width="54.4" height="4.18" transform="translate(46.86 247.99)" fill="#fff"/>
              <rect id="Rectangle_12" data-name="Rectangle 12" width="79.5" height="4.18" transform="translate(46.86 256.36)" fill="#fff"/>
              <rect id="Rectangle_13" data-name="Rectangle 13" width="66.95" height="4.18" transform="translate(46.86 264.73)" fill="#fff"/>
              <rect id="Rectangle_14" data-name="Rectangle 14" width="96.24" height="4.18" transform="translate(46.86 273.1)" fill="#fff"/>
              <rect id="Rectangle_15" data-name="Rectangle 15" width="83.69" height="33.47" transform="translate(51.05 285.65)" fill="#fff"/>
              <path id="Path_39" data-name="Path 39" d="M847.23,526.13s14,96.19,96.19,128.14l-166.3.23-166.3.23c82.06-32.18,95.85-128.41,95.85-128.41Z" transform="translate(-141.76 -69)" fill="#e0e0e0"/>
              <rect id="Rectangle_16" data-name="Rectangle 16" width="335.74" height="20.32" transform="translate(467.406 585.717) rotate(-0.08)" fill="url(#linear-gradient-4)"/>
              <rect id="Rectangle_17" data-name="Rectangle 17" width="332.6" height="15.68" transform="translate(469.086 585.715) rotate(-0.08)" fill="#f5f5f5"/>
              <path id="Path_40" data-name="Path 40" d="M1047,180l-540.9.75a11.1,11.1,0,0,0-10.83,11.36l.42,315.58V518.2c0,24,18.63,43.39,41.55,43.36l479.61-.66c22.91,0,41.46-19.49,41.43-43.47v-10.5l-.42-315.58A11.1,11.1,0,0,0,1047,180Z" transform="translate(-141.76 -69)" fill="url(#linear-gradient-5)"/>
              <path id="Path_41" data-name="Path 41" d="M513,189.5h527.49a10.75,10.75,0,0,1,10.75,10.75V500.57h-549V200.25A10.75,10.75,0,0,1,513,189.5Z" transform="translate(-142.24 -67.93)" fill="#fff"/>
              <path id="Path_42" data-name="Path 42" d="M1013.17,551.56l-472.36.65a38.32,38.32,0,0,1-38.37-38.27v-13l549-.76v13a38.32,38.32,0,0,1-38.27,38.38Z" transform="translate(-141.76 -69)" fill="#f5f5f5"/>
              <rect id="Rectangle_18" data-name="Rectangle 18" width="496.81" height="251.12" transform="translate(387.12 146.77)" fill="#e6e6e6"/>
              <rect id="Rectangle_19" data-name="Rectangle 19" width="87.94" height="92.34" transform="translate(753.22 163.33)" fill="url(#linear-gradient-2)"/>
              <rect id="Rectangle_20" data-name="Rectangle 20" width="80.3" height="84.31" transform="translate(757.04 167.35)" fill="#24afd8"/>
              <g id="Group_2" data-name="Group 2" opacity="0.5">
                <path id="Path_43" data-name="Path 43" d="M944.44,273.84l-1-.36-.06.09h-.06v-2.72a6.264,6.264,0,0,0-.08-1,10.409,10.409,0,0,0,3.57-4.709,12.27,12.27,0,1,0-19.43,0,10.411,10.411,0,0,0,3.57,4.71,6.265,6.265,0,0,0-.08,1v3h0a25.44,25.44,0,0,0-18.67,24.52v22.31H963V298.34a25.44,25.44,0,0,0-18.56-24.5Z" transform="translate(-141.76 -69)" fill="url(#linear-gradient-7)"/>
              </g>
              <path id="Path_44" data-name="Path 44" d="M794.3,204.29h3.1a22.93,22.93,0,0,1,22.93,22.93v23h-49v-23a22.93,22.93,0,0,1,22.97-22.93Z" fill="#514abf"/>
              <rect id="Rectangle_21" data-name="Rectangle 21" width="11.99" height="14.99" rx="5.62" transform="translate(789.36 196.3)" fill="#fda57d"/>
              <path id="Path_45" data-name="Path 45" d="M785.2,206.94l4.02,8.62,3.99-3.99-3.99-6.13Z" opacity="0.05"/>
              <path id="Path_46" data-name="Path 46" d="M927.1,275.52l4,8.62,4-4-4-6.12-1.84.56a4.607,4.607,0,0,0-.53.2Z" transform="translate(-141.76 -69)" fill="#fff"/>
              <path id="Path_47" data-name="Path 47" d="M805.52,206.52l-4.03,9.04-4-3.99,4.11-6.45Z" opacity="0.05"/>
              <path id="Path_48" data-name="Path 48" d="M947.14,275.1l-4,9-4-4,4.11-6.45.75.22a20,20,0,0,1,2.39.85Z" transform="translate(-141.76 -69)" fill="#fff"/>
              <path id="Path_49" data-name="Path 49" d="M793.05,210.83l2.24,3.26,2.36-3.26Z" fill="#fda57d"/>
              <path id="Path_50" data-name="Path 50" d="M922.33,291.64s-2.38,23.69-.84,25.23" transform="translate(-141.76 -69)" opacity="0.1"/>
              <path id="Path_51" data-name="Path 51" d="M951.77,291.64s2.38,23.69.84,25.23" transform="translate(-141.76 -69)" opacity="0.1"/>
              <path id="Path_52" data-name="Path 52" d="M937.11,272.57a10,10,0,0,0,5.921-1.941,6,6,0,0,0-5.921-5.049h0a6,6,0,0,0-5.92,5.05A10,10,0,0,0,937.11,272.57Z" transform="translate(-141.76 -69)" opacity="0.05"/>
              <circle id="Ellipse_10" data-name="Ellipse 10" cx="11.81" cy="11.81" r="11.81" transform="translate(783.54 177.79)"/>
              <circle id="Ellipse_11" data-name="Ellipse 11" cx="9.99" cy="9.99" r="9.99" transform="translate(785.36 183.31)" fill="#fda57d"/>
              <path id="Path_53" data-name="Path 53" d="M929.06,252.4l2.52,3.08s11.07,1,12.33-1.54-7.29-4.35-7.29-4.35Z" transform="translate(-141.76 -69)" opacity="0.05"/>
              <path id="Path_54" data-name="Path 54" d="M929.06,252.12l2.52,3.08s11.07,1,12.33-1.54-7.29-4.35-7.29-4.35Z" transform="translate(-141.76 -69)"/>
              <ellipse id="Ellipse_12" data-name="Ellipse 12" cx="0.7" cy="1.26" rx="0.7" ry="1.26" transform="translate(784.64 191.39)" fill="#fda57d"/>
              <ellipse id="Ellipse_13" data-name="Ellipse 13" cx="0.7" cy="1.26" rx="0.7" ry="1.26" transform="translate(804.68 191.39)" fill="#fda57d"/>
              <rect id="Rectangle_22" data-name="Rectangle 22" width="87.94" height="92.34" transform="translate(753.73 274.1)" fill="url(#linear-gradient-2)"/>
              <path id="Rectangle_23" data-name="Rectangle 23" d="M0,0H80.3V84.31H0Z" transform="translate(757.55 278.11)" fill="#f5f5f5"/>
              <g id="Group_3" data-name="Group 3" opacity="0.5">
                <path id="Path_55" data-name="Path 55" d="M945.53,385.1v-3.56a11.07,11.07,0,0,0,3.74-5,13.05,13.05,0,0,0-5.45-20.07,4.44,4.44,0,1,0-8.73-.37,13.05,13.05,0,0,0-6.49,20.45,11.071,11.071,0,0,0,3.74,5v3.74a24.48,24.48,0,0,0-19.87,24V435.6h54.1V409.33a24.48,24.48,0,0,0-21.04-24.23Z" transform="translate(-141.76 -69)" fill="url(#linear-gradient-9)"/>
              </g>
              <path id="Path_56" data-name="Path 56" d="M796.15,316.66h3.1a22.93,22.93,0,0,1,22.93,22.93v23h-49v-23a22.93,22.93,0,0,1,22.93-22.93Z" fill="#fff"/>
              <rect id="Rectangle_24" data-name="Rectangle 24" width="11.99" height="14.99" rx="5.62" transform="translate(791.2 308.67)" fill="#fdb797"/>
              <path id="Path_57" data-name="Path 57" d="M794.9,323.2l2.24,3.26,2.35-3.26Z" fill="#fdb797"/>
              <path id="Path_58" data-name="Path 58" d="M924.18,404s-2.38,23.69-.84,25.23" transform="translate(-141.76 -69)" opacity="0.1"/>
              <path id="Path_59" data-name="Path 59" d="M953.62,404s2.38,23.69.84,25.23" transform="translate(-141.76 -69)" opacity="0.1"/>
              <path id="Path_60" data-name="Path 60" d="M939,384.94a10,10,0,0,0,5.922-1.94A6,6,0,0,0,939,377.95h0a6,6,0,0,0-6,5.05,10,10,0,0,0,6,1.94Z" transform="translate(-141.76 -69)" opacity="0.05"/>
              <circle id="Ellipse_14" data-name="Ellipse 14" cx="11.81" cy="11.81" r="11.81" transform="translate(785.39 290.16)" fill="#fdd835"/>
              <circle id="Ellipse_15" data-name="Ellipse 15" cx="9.99" cy="9.99" r="9.99" transform="translate(787.21 295.68)" fill="#fdb797"/>
              <ellipse id="Ellipse_16" data-name="Ellipse 16" cx="0.7" cy="1.26" rx="0.7" ry="1.26" transform="translate(786.48 303.76)" fill="#fdb797"/>
              <ellipse id="Ellipse_17" data-name="Ellipse 17" cx="0.7" cy="1.26" rx="0.7" ry="1.26" transform="translate(806.53 303.76)" fill="#fdb797"/>
              <circle id="Ellipse_18" data-name="Ellipse 18" cx="4.01" cy="4.01" r="4.01" transform="translate(793.69 286.15)" fill="#fdd835"/>
              <path id="Path_61" data-name="Path 61" d="M931.43,363.17s4,8,16.06,4l-4-4Z" transform="translate(-141.76 -69)" fill="#fdd835"/>
              <rect id="Rectangle_25" data-name="Rectangle 25" width="220.98" height="9.61" transform="translate(427.01 178.28)" fill="#fff"/>
              <rect id="Rectangle_26" data-name="Rectangle 26" width="220.98" height="9.61" transform="translate(427.01 197.49)" fill="#fff"/>
              <rect id="Rectangle_27" data-name="Rectangle 27" width="124.9" height="9.61" transform="translate(427.01 216.71)" fill="#fff"/>
              <rect id="Rectangle_28" data-name="Rectangle 28" width="182.55" height="9.61" transform="translate(427.01 235.92)" fill="#fff"/>
              <rect id="Rectangle_29" data-name="Rectangle 29" width="153.72" height="9.61" transform="translate(427.01 255.14)" fill="#fff"/>
              <rect id="Rectangle_30" data-name="Rectangle 30" width="220.98" height="9.61" transform="translate(427.01 274.35)" fill="#fff"/>
              <rect id="Rectangle_31" data-name="Rectangle 31" width="192.15" height="76.86" transform="translate(436.62 303.18)" fill="#fff"/>
              <rect id="Rectangle_32" data-name="Rectangle 32" width="277.16" height="429.64" rx="17.17" transform="translate(123.302 420.391) rotate(-0.08)" fill="url(#linear-gradient-10)"/>
              <rect id="Rectangle_33" data-name="Rectangle 33" width="239.35" height="360.35" transform="translate(142.748 453.184) rotate(-0.08)" fill="url(#linear-gradient-11)"/>
              <rect id="Rectangle_34" data-name="Rectangle 34" width="260.3" height="409.85" rx="12.68" transform="translate(131.741 426.869) rotate(-0.08)" fill="#fff"/>
              <rect id="Rectangle_35" data-name="Rectangle 35" width="224.79" height="343.76" transform="translate(150.005 458.164) rotate(-0.08)" fill="#e6e6e6"/>
              <ellipse id="Ellipse_21" data-name="Ellipse 21" cx="9.26" cy="9.49" rx="9.26" ry="9.49" transform="translate(253.13 809.97)" fill="#dbdbdb"/>
              <ellipse id="Ellipse_22" data-name="Ellipse 22" cx="3.09" cy="3.16" rx="3.09" ry="3.16" transform="translate(220.389 440.036) rotate(-0.08)" fill="#dbdbdb"/>
              <rect id="Rectangle_36" data-name="Rectangle 36" width="40.14" height="3.16" rx="0.76" transform="translate(238.921 441.27) rotate(-0.08)" fill="#dbdbdb"/>
              <rect id="Rectangle_37" data-name="Rectangle 37" width="87.94" height="92.34" transform="translate(261.28 669.8)" fill="url(#linear-gradient-2)"/>
              <g id="Group_10" data-name="Group 10">
                <rect id="Rectangle_38" data-name="Rectangle 38" width="80.3" height="84.31" transform="translate(265.1 673.82)" fill="#24afd8"/>
                <g id="Group_5" data-name="Group 5" transform="translate(-41 88)" opacity="0.5">
                  <path id="Path_64" data-name="Path 64" d="M494.84,692.32l-1-.36-.06.09h-.06v-2.72a6.276,6.276,0,0,0-.08-1,10.408,10.408,0,0,0,3.57-4.709,12.27,12.27,0,1,0-19.43,0,10.41,10.41,0,0,0,3.57,4.71,6.26,6.26,0,0,0-.08,1v3h0a25.44,25.44,0,0,0-18.67,24.52v22.31h50.85V716.81a25.44,25.44,0,0,0-18.61-24.49Z" transform="translate(-141.76 -69)" fill="url(#linear-gradient-13)"/>
                </g>
                <path id="Path_65" data-name="Path 65" d="M344.7,622.76h3.1a22.93,22.93,0,0,1,22.93,22.93v23h-49v-23a22.93,22.93,0,0,1,22.97-22.93Z" transform="translate(-41 88)" fill="#3ad29f"/>
                <path id="Path_67" data-name="Path 67" d="M472.73,710.11s-2.38,23.69-.84,25.23" transform="translate(-181.76 19)" opacity="0.1"/>
                <path id="Path_68" data-name="Path 68" d="M502.17,710.11s2.38,23.69.84,25.23" transform="translate(-181.76 19)" opacity="0.1"/>
              </g>
              <g id="Group_9-2" data-name="Group 9" transform="translate(-183 5)">
                <rect id="Rectangle_39" data-name="Rectangle 39" width="11.99" height="14.99" rx="5.62" transform="translate(481.76 697.77)" fill="#be7c5e"/>
                <path id="Path_66" data-name="Path 66" d="M343.45,629.3l2.24,3.26,2.36-3.26Z" transform="translate(142 83)" fill="#be7c5e"/>
                <path id="Path_69" data-name="Path 69" d="M487.51,691a10,10,0,0,0,5.923-1.942,6,6,0,0,0-5.923-5.047h0a6,6,0,0,0-5.92,5.05,10,10,0,0,0,5.92,1.94Z" transform="translate(0.24 14)" opacity="0.05"/>
                <circle id="Ellipse_23" data-name="Ellipse 23" cx="11.81" cy="11.81" r="11.81" transform="translate(475.94 679.26)" fill="#444"/>
                <circle id="Ellipse_24" data-name="Ellipse 24" cx="9.99" cy="9.99" r="9.99" transform="translate(477.76 684.78)" fill="#be7c5e"/>
                <path id="Path_70" data-name="Path 70" d="M479.46,670.87l2.52,3.08s11.07,1,12.33-1.54-7.29-4.35-7.29-4.35Z" transform="translate(0.24 14)" opacity="0.05"/>
                <path id="Path_71" data-name="Path 71" d="M479.46,670.59l2.52,3.08s11.07,1,12.33-1.54-7.29-4.35-7.29-4.35Z" transform="translate(0.24 14)" fill="#444"/>
                <ellipse id="Ellipse_25" data-name="Ellipse 25" cx="0.7" cy="1.26" rx="0.7" ry="1.26" transform="translate(477.04 692.86)" fill="#be7c5e"/>
                <ellipse id="Ellipse_26" data-name="Ellipse 26" cx="0.7" cy="1.26" rx="0.7" ry="1.26" transform="translate(497.08 692.86)" fill="#be7c5e"/>
                <path id="Path_72" data-name="Path 72" d="M479.7,666.09a6,6,0,0,1,3.08-2.07c2.21-.88,4.51-1.78,6.88-1.62a1.161,1.161,0,0,1,.65.19,2.236,2.236,0,0,1,.39.57c.72,1.07,2.74,1,3,2.26.07.41-.1.85,0,1.25.26,1,1.67.9,2.5,1.47a2.28,2.28,0,0,1,.2,3.18,6,6,0,0,1-3.06,1.74,11.8,11.8,0,0,1-6.45.57C483.86,672.84,476.77,670.88,479.7,666.09Z" transform="translate(0.24 14)" fill="#444"/>
              </g>
              <rect id="Rectangle_40" data-name="Rectangle 40" width="87.94" height="92.34" transform="translate(171.28 668.8)" fill="url(#linear-gradient-2)"/>
              <path id="Rectangle_41" data-name="Rectangle 41" d="M0,0H80.3V84.31H0Z" transform="translate(175.1 672.82)" fill="#24afd8"/>
              <g id="Group_6" data-name="Group 6" transform="translate(-41 88)" opacity="0.5">
                <path id="Path_73" data-name="Path 73" d="M404.84,691.32l-1-.36-.06.09h-.06v-2.72a6.272,6.272,0,0,0-.08-1,10.411,10.411,0,0,0,3.57-4.709,12.27,12.27,0,1,0-19.43,0,10.41,10.41,0,0,0,3.57,4.71,6.264,6.264,0,0,0-.08,1v3h0a25.44,25.44,0,0,0-18.67,24.52v22.31h50.85V715.81a25.44,25.44,0,0,0-18.61-24.49Z" transform="translate(-141.76 -69)" fill="url(#linear-gradient-13)"/>
              </g>
              <path id="Path_74" data-name="Path 74" d="M254.7,621.76h3.1a22.93,22.93,0,0,1,22.93,22.93v23h-49v-23a22.93,22.93,0,0,1,22.97-22.93Z" transform="translate(-41 88)" fill="#514abf"/>
              <rect id="Rectangle_42" data-name="Rectangle 42" width="11.99" height="14.99" rx="5.62" transform="translate(208.76 701.77)" fill="#fda57d"/>
              <path id="Path_75" data-name="Path 75" d="M382.73,709.11s-2.38,23.69-.84,25.23" transform="translate(-181.76 22)" opacity="0.1"/>
              <path id="Path_76" data-name="Path 76" d="M412.17,709.11s2.38,23.69.84,25.23" transform="translate(-182.76 19)" opacity="0.1"/>
              <path id="Path_77" data-name="Path 77" d="M397.51,690a10,10,0,0,0,5.923-1.942,6,6,0,0,0-5.923-5.047h0a6,6,0,0,0-5.92,5.05A10,10,0,0,0,397.51,690Z" transform="translate(-182.76 19)" opacity="0.05"/>
              <circle id="Ellipse_27" data-name="Ellipse 27" cx="11.81" cy="11.81" r="11.81" transform="translate(202.94 683.26)" fill="#444"/>
              <circle id="Ellipse_28" data-name="Ellipse 28" cx="9.99" cy="9.99" r="9.99" transform="translate(204.76 688.78)" fill="#fda57d"/>
              <path id="Path_78" data-name="Path 78" d="M389.46,669.87l2.52,3.08s11.07,1,12.33-1.54-7.29-4.35-7.29-4.35Z" transform="translate(-182.76 19)" opacity="0.05"/>
              <path id="Path_79" data-name="Path 79" d="M389.46,669.59l2.52,3.08s11.07,1,12.33-1.54-7.29-4.35-7.29-4.35Z" transform="translate(-182.76 19)" fill="#444"/>
              <ellipse id="Ellipse_29" data-name="Ellipse 29" cx="0.7" cy="1.26" rx="0.7" ry="1.26" transform="translate(204.04 696.86)" fill="#fda57d"/>
              <ellipse id="Ellipse_30" data-name="Ellipse 30" cx="0.7" cy="1.26" rx="0.7" ry="1.26" transform="translate(224.08 696.86)" fill="#fda57d"/>
              <rect id="Rectangle_43" data-name="Rectangle 43" width="163.33" height="7.1" transform="translate(174.64 501.83)" fill="#fff"/>
              <rect id="Rectangle_44" data-name="Rectangle 44" width="163.33" height="7.1" transform="translate(174.64 516.03)" fill="#fff"/>
              <rect id="Rectangle_45" data-name="Rectangle 45" width="92.32" height="7.1" transform="translate(174.64 530.23)" fill="#fff"/>
              <rect id="Rectangle_46" data-name="Rectangle 46" width="134.93" height="7.1" transform="translate(174.64 544.44)" fill="#fff"/>
              <rect id="Rectangle_47" data-name="Rectangle 47" width="113.62" height="7.1" transform="translate(174.64 558.64)" fill="#fff"/>
              <rect id="Rectangle_48" data-name="Rectangle 48" width="163.33" height="7.1" transform="translate(174.64 572.84)" fill="#fff"/>
              <rect id="Rectangle_49" data-name="Rectangle 49" width="142.03" height="56.81" transform="translate(181.74 594.15)" fill="#fff"/>
              <path id="Path_80" data-name="Path 80" d="M390.57,676a16.266,16.266,0,0,0,1.25-2.8,6.87,6.87,0,0,1,12.23-.48c.82,1.47,1.09,3.21,2,4.63a1.17,1.17,0,0,0,1.69-.31,2.22,2.22,0,0,0,.11-1.9c-.21-.62-.56-1.19-.79-1.8a14.255,14.255,0,0,0-1-2.88,5.94,5.94,0,0,0-2-1.67c-2.21-1.36-4.77-2.77-7.27-2a9.367,9.367,0,0,0-2.37,1.21l-3.18,2a10,10,0,0,0-2.7,2.21c-.69.9-2,3.59-1.39,4.75C387.87,678.28,389.94,676.83,390.57,676Z" transform="translate(-182.76 19)" fill="#444"/>
              <path id="Path_81" data-name="Path 81" d="M253.24,628v39.73h5.87L258.24,628Z" transform="translate(-41 88)" fill="#fff"/>
              <path id="Path_82" data-name="Path 82" d="M252.26,627.46l3.4,4.95,3.58-4.95Z" transform="translate(-41 88)" fill="#fda57d"/>
              <g id="Group_7" data-name="Group 7" opacity="0.5">
                <path id="Path_55-2" data-name="Path 55" d="M945.53,385.1v-3.56a11.07,11.07,0,0,0,3.74-5,13.05,13.05,0,0,0-5.45-20.07,4.44,4.44,0,1,0-8.73-.37,13.05,13.05,0,0,0-6.49,20.45,11.071,11.071,0,0,0,3.74,5v3.74a24.48,24.48,0,0,0-19.87,24V435.6h54.1V409.33a24.48,24.48,0,0,0-21.04-24.23Z" transform="translate(-141.76 -69)" fill="url(#linear-gradient-9)"/>
                <path id="Path_89" data-name="Path 89" d="M945.53,385.1v-3.56a11.07,11.07,0,0,0,3.74-5,13.05,13.05,0,0,0-5.45-20.07,4.44,4.44,0,1,0-8.73-.37,13.05,13.05,0,0,0-6.49,20.45,11.071,11.071,0,0,0,3.74,5v3.74a24.48,24.48,0,0,0-19.87,24V435.6h54.1V409.33a24.48,24.48,0,0,0-21.04-24.23Z" transform="translate(-141.76 -69)" fill="url(#linear-gradient-9)"/>
              </g>
            </g>
            <g id="Group_8-2" data-name="Group 8" transform="translate(-232 -68)">
              <g id="undraw_image_viewer_wxce" transform="translate(1110 522)">
                <path id="Path_83" data-name="Path 83" d="M790.982,682.841H220.291a19.136,19.136,0,0,1-19.136-19.136h0q310.313-36.064,608.963,0h0A19.136,19.136,0,0,1,790.982,682.841Z" transform="translate(-172 -202.421)" fill="#e6e6e6"/>
                <path id="Path_84" data-name="Path 84" d="M810.118,664.831l-608.963-1.126,70.577-118.753.338-.563V282.67a24.188,24.188,0,0,1,24.2-24.19H711.637a24.188,24.188,0,0,1,24.19,24.2V546.19Z" transform="translate(-172 -202.421)" fill="#f5f5f5"/>
                <path id="Path_85" data-name="Path 85" d="M295.708,275.365a7.888,7.888,0,0,0-7.879,7.879V521.876a7.889,7.889,0,0,0,7.879,7.879H715.566a7.889,7.889,0,0,0,7.879-7.879V283.244a7.889,7.889,0,0,0-7.879-7.879Z" transform="translate(-172 -202.421)" fill="#e6e6e6"/>
                <path id="Path_86" data-name="Path 86" d="M297.467,561.273a3.386,3.386,0,0,0-3.068,1.965l-21.747,47.276a3.377,3.377,0,0,0,3.067,4.788H733.045a3.376,3.376,0,0,0,3.02-4.887L712.426,563.14a3.36,3.36,0,0,0-3.02-1.867Z" transform="translate(-172 -202.421)" fill="#e6e6e6"/>
                <circle id="Ellipse_31" data-name="Ellipse 31" cx="5.065" cy="5.065" r="5.065" transform="translate(326.883 58.873)" fill="#fff"/>
                <path id="Path_87" data-name="Path 87" d="M459,624.308a3.382,3.382,0,0,0-3.26,2.5l-5.455,20.261a3.377,3.377,0,0,0,3.26,4.255H557.283a3.376,3.376,0,0,0,3.19-4.482L553.46,626.58a3.379,3.379,0,0,0-3.191-2.272Z" transform="translate(-172 -202.421)" fill="#ff9800"/>
                <path id="Path_88" data-name="Path 88" d="M563.827,338.028v4.5H99.732l.349-.562v-3.94Z" fill="#e6e6e6"/>
              </g>
              <rect id="Rectangle_52" data-name="Rectangle 52" width="202.331" height="8.799" transform="translate(1254.01 636.358)" fill="#fff"/>
              <rect id="Rectangle_53" data-name="Rectangle 53" width="202.331" height="8.799" transform="translate(1254.01 653.946)" fill="#fff"/>
              <rect id="Rectangle_54" data-name="Rectangle 54" width="114.36" height="8.799" transform="translate(1254.01 671.544)" fill="#fff"/>
              <rect id="Rectangle_55" data-name="Rectangle 55" width="167.144" height="8.799" transform="translate(1254.01 689.133)" fill="#fff"/>
              <rect id="Rectangle_56" data-name="Rectangle 56" width="202.331" height="8.799" transform="translate(1254.01 724.32)" fill="#fff"/>
              <rect id="Rectangle_57" data-name="Rectangle 57" width="175.934" height="70.374" transform="translate(1262.809 750.717)" fill="#fff"/>
            </g>
          </g>
          <rect id="Rectangle_76" data-name="Rectangle 76" width="75.343" height="79.113" transform="translate(1181.22 645.33)" fill="url(#linear-gradient-2)"/>
          <rect id="Rectangle_77" data-name="Rectangle 77" width="68.798" height="72.233" transform="translate(1184.493 648.774)" fill="#24afd8"/>
          <g id="Group_11-2" data-name="Group 11" transform="translate(1195.973 656.507)" opacity="0.5">
            <path id="Path_100" data-name="Path 100" d="M939.822,269.763l-.857-.308-.051.077h-.052V267.2a5.374,5.374,0,0,0-.069-.86,8.918,8.918,0,0,0,3.059-4.032,10.512,10.512,0,1,0-16.647,0,8.917,8.917,0,0,0,3.059,4.035,5.366,5.366,0,0,0-.069.857v2.57h0a21.8,21.8,0,0,0-16,21.008v19.114h43.523v-19.14a21.8,21.8,0,0,0-15.9-20.992Z" transform="translate(-912.2 -245.375)" fill="url(#linear-gradient-7)"/>
          </g>
          <path id="Path_101" data-name="Path 101" d="M791.01,204.29h2.656a19.645,19.645,0,0,1,19.645,19.645V243.64H771.33V223.935a19.645,19.645,0,0,1,19.68-19.645Z" transform="translate(425.406 476.133)" fill="#514abf"/>
          <rect id="Rectangle_78" data-name="Rectangle 78" width="10.273" height="12.843" rx="5.136" transform="translate(1212.183 673.577)" fill="#fda57d"/>
          <path id="Path_102" data-name="Path 102" d="M785.2,206.725l3.444,7.385,3.419-3.418-3.419-5.252Z" transform="translate(423.419 475.968)" opacity="0.05"/>
          <path id="Path_103" data-name="Path 103" d="M927.1,275.3l3.427,7.385,3.427-3.427-3.427-5.243-1.576.48a3.94,3.94,0,0,0-.454.171Z" transform="translate(281.639 407.028)" fill="#fff"/>
          <path id="Path_104" data-name="Path 104" d="M804.37,206.319l-3.453,7.745-3.427-3.418,3.521-5.526Z" transform="translate(421.659 476.014)" opacity="0.05"/>
          <path id="Path_105" data-name="Path 105" d="M945.994,274.892l-3.427,7.711-3.427-3.427,3.521-5.526.643.188a17.141,17.141,0,0,1,2.048.728Z" transform="translate(279.914 407.081)" fill="#fff"/>
          <path id="Path_106" data-name="Path 106" d="M793.05,210.83l1.919,2.793,2.022-2.793Z" transform="translate(422.295 475.196)" fill="#fda57d"/>
          <path id="Path_107" data-name="Path 107" d="M922.135,291.64s-2.039,20.3-.72,21.616" transform="translate(282.517 404.504)" opacity="0.1"/>
          <path id="Path_108" data-name="Path 108" d="M951.77,291.64s2.039,20.3.72,21.616" transform="translate(278.105 404.504)" opacity="0.1"/>
          <path id="Path_109" data-name="Path 109" d="M936.262,271.569a8.568,8.568,0,0,0,5.073-1.663,5.14,5.14,0,0,0-5.073-4.326h0a5.141,5.141,0,0,0-5.072,4.327A8.567,8.567,0,0,0,936.262,271.569Z" transform="translate(281.053 408.237)" opacity="0.05"/>
          <circle id="Ellipse_38" data-name="Ellipse 38" cx="10.118" cy="10.118" r="10.118" transform="translate(1207.197 657.719)"/>
          <circle id="Ellipse_39" data-name="Ellipse 39" cx="8.559" cy="8.559" r="8.559" transform="translate(1208.756 662.448)" fill="#fda57d"/>
          <path id="Path_110" data-name="Path 110" d="M929.06,252l2.159,2.639s9.484.857,10.564-1.319-6.246-3.727-6.246-3.727Z" transform="translate(281.358 410.528)" opacity="0.05"/>
          <path id="Path_111" data-name="Path 111" d="M929.06,251.717l2.159,2.639s9.484.857,10.564-1.319-6.246-3.727-6.246-3.727Z" transform="translate(281.358 410.568)"/>
          <ellipse id="Ellipse_40" data-name="Ellipse 40" cx="0.6" cy="1.08" rx="0.6" ry="1.08" transform="translate(1208.139 669.371)" fill="#fda57d"/>
          <ellipse id="Ellipse_41" data-name="Ellipse 41" cx="0.6" cy="1.08" rx="0.6" ry="1.08" transform="translate(1225.309 669.371)" fill="#fda57d"/>
          <rect id="Rectangle_79" data-name="Rectangle 79" width="75.343" height="79.113" transform="translate(1181.657 740.233)" fill="url(#linear-gradient-2)"/>
          <rect id="Rectangle_80" data-name="Rectangle 80" width="68.798" height="72.233" transform="translate(1184.93 743.668)" fill="#24afd8"/>
          <g id="Group_12-2" data-name="Group 12" transform="translate(1196.205 747.048)" opacity="0.5">
            <path id="Path_112" data-name="Path 112" d="M940.794,380.223v-3.05a9.484,9.484,0,0,0,3.2-4.284,11.181,11.181,0,0,0-4.669-17.2,3.8,3.8,0,1,0-7.479-.317,11.181,11.181,0,0,0-5.56,17.521,9.485,9.485,0,0,0,3.2,4.284c0,.129,0,.257,0,.394v2.81a20.973,20.973,0,0,0-17.024,20.562v22.541h46.35v-22.5a20.973,20.973,0,0,0-18.026-20.759Z" transform="translate(-912.47 -351.054)" fill="url(#linear-gradient-9)"/>
          </g>
          <path id="Path_113" data-name="Path 113" d="M792.86,316.66h2.656a19.645,19.645,0,0,1,19.645,19.64V356H773.18V336.3a19.645,19.645,0,0,1,19.645-19.645Z" transform="translate(425.141 460.036)" fill="#fff"/>
          <rect id="Rectangle_81" data-name="Rectangle 81" width="10.273" height="12.843" rx="5.136" transform="translate(1213.76 769.851)" fill="#fdb797"/>
          <path id="Path_114" data-name="Path 114" d="M794.9,323.2l1.919,2.793,2.013-2.793Z" transform="translate(422.03 459.1)" fill="#fdb797"/>
          <path id="Path_115" data-name="Path 115" d="M923.985,404s-2.039,20.3-.72,21.616" transform="translate(282.252 388.409)" opacity="0.1"/>
          <path id="Path_116" data-name="Path 116" d="M953.62,404s2.039,20.3.72,21.616" transform="translate(277.84 388.409)" opacity="0.1"/>
          <path id="Path_117" data-name="Path 117" d="M938.141,383.939a8.569,8.569,0,0,0,5.073-1.663,5.141,5.141,0,0,0-5.073-4.326h0A5.141,5.141,0,0,0,933,382.277a8.568,8.568,0,0,0,5.141,1.662Z" transform="translate(280.794 392.141)" opacity="0.05"/>
          <circle id="Ellipse_42" data-name="Ellipse 42" cx="10.118" cy="10.118" r="10.118" transform="translate(1208.782 753.992)" fill="#fdd835"/>
          <circle id="Ellipse_43" data-name="Ellipse 43" cx="8.559" cy="8.559" r="8.559" transform="translate(1210.341 758.722)" fill="#fdb797"/>
          <ellipse id="Ellipse_44" data-name="Ellipse 44" cx="0.6" cy="1.08" rx="0.6" ry="1.08" transform="translate(1209.716 765.644)" fill="#fdb797"/>
          <ellipse id="Ellipse_45" data-name="Ellipse 45" cx="0.6" cy="1.08" rx="0.6" ry="1.08" transform="translate(1226.894 765.644)" fill="#fdb797"/>
          <circle id="Ellipse_46" data-name="Ellipse 46" cx="3.436" cy="3.436" r="3.436" transform="translate(1215.893 750.557)" fill="#fdd835"/>
          <path id="Path_118" data-name="Path 118" d="M931.43,363.17s3.427,6.854,13.759,3.427l-3.427-3.427Z" transform="translate(281.019 394.258)" fill="#fdd835"/>
        </g>
      </g>
    </g>
    <line id="Line_1" data-name="Line 1" x2="1019" transform="translate(3303.5 -3033.5)" fill="none" stroke="#707070" stroke-width="1" opacity="0"/>
  </g>
</svg>
